<svg id="Layer_1" data-name="Layer 1" xmlns="http://www.w3.org/2000/svg" viewBox="0 0 77.76 77.76"><title>Workday_Logo_1</title><path d="M53.87,43.57a12.29,12.29,0,0,1-6.93,7.28V43.57l4-3.59-4-3.53v-5a6.29,6.29,0,0,0,6.17-6.21c0-4.3-4.1-5.82-6.42-5.82a6.66,6.66,0,0,0-1.87.21v.2c.3,0,.76-.05.91-.05,1.62,0,2.83.76,2.83,2.22A2.33,2.33,0,0,1,46,24.22c-4,0-8.69-3.24-13.8-3.24-4.55,0-7.68,3.39-7.68,6.82s2,4.5,4,5.26l.06-.2a2.43,2.43,0,0,1-1.12-2.23,3,3,0,0,1,3.19-2.78c4.29,0,11.22,3.59,15.51,3.59h.41V36.5l-4,3.48,4,3.59V51a14.87,14.87,0,0,1-5.16.86c-6.67,0-10.91-4-10.91-10.76a16.37,16.37,0,0,1,.65-4.7l3.34-1.47V49.74l6.77-3V31.54L31.37,36a11,11,0,0,1,5.56-6.27l0-.15C30.21,31,23.74,36.09,23.74,43.67c0,8.75,7.38,14.81,16,14.81,9.1,0,14.26-6.06,14.31-14.91Z"/></svg>